# xmcd
#
# Track frame offsets:
#	150
#	47164
#	88054
#	121189
#	164269
#	214294
#	228887
#	266379
#
# Disc length: 4077 seconds
#
# Revision: 0
# Processed by: cddbd v1.5.2PL0 Copyright (c) Steve Scherf et al.
# Submitted via: audiograbber 1.83.01
#
DISCID=650feb08
DTITLE=Grateful Dead - 93-06-15 Freedom Hall, Louisville KY
DYEAR=1900
DGENRE=
TTITLE0=Feel Like A Stranger
TTITLE1=Althea
TTITLE2=Wang Dang Doodle
TTITLE3=Friend Of The Devil
TTITLE4=Desolation Row
TTITLE5=Don't Ease Me In
TTITLE6=Victim Or The Crime
TTITLE7=Crazy Finger
EXTD=
EXTT0=
EXTT1=
EXTT2=
EXTT3=
EXTT4=
EXTT5=
EXTT6=
EXTT7=
PLAYORDER=
